<?plantuml 1.2026.2?><svg xmlns="http://www.w3.org/2000/svg" xmlns:xlink="http://www.w3.org/1999/xlink" contentStyleType="text/css" data-diagram-type="DESCRIPTION" height="567px" preserveAspectRatio="none" style="width:412px;height:567px;background:#0E1B2C;" version="1.1" viewBox="0 0 412 567" width="412px" zoomAndPan="magnify"><title>ID&#183;Mate &#8212; High-level Architecture</title><defs/><g><rect fill="#0E1B2C" height="567" style="stroke:none;stroke-width:1;" width="412" x="0" y="0"/><g class="title" data-source-line="17"><text fill="#E8EEF7" font-family="Helvetica" font-size="22" font-weight="bold" lengthAdjust="spacing" textLength="353.2998" x="25.0361" y="31.9404">ID&#183;Mate &#8212; High-level Architecture</text></g><!--entity ESP--><g class="entity" data-qualified-name="ESP" data-source-line="19" id="ent0002"><rect fill="#14253A" height="58" rx="2.5" ry="2.5" style="stroke:#1DE9B6;stroke-width:1;" width="221.2822" x="12" y="55"/><rect fill="#14253A" height="10" style="stroke:#1DE9B6;stroke-width:1;" width="15" x="213.2822" y="60"/><rect fill="#14253A" height="2" style="stroke:#1DE9B6;stroke-width:1;" width="4" x="211.2822" y="62"/><rect fill="#14253A" height="2" style="stroke:#1DE9B6;stroke-width:1;" width="4" x="211.2822" y="66"/><text fill="#E8EEF7" font-family="Helvetica" font-size="14" lengthAdjust="spacing" textLength="76.2344" x="27" y="85.7803">IDTelemetry</text><text fill="#E8EEF7" font-family="Helvetica" font-size="14" lengthAdjust="spacing" textLength="181.2822" x="27" y="99.7803">(ESP32 / OBD2 / GPS / LTE)</text></g><!--entity HA--><g class="entity" data-qualified-name="HA" data-source-line="20" id="ent0003"><rect fill="#14253A" height="58" rx="2.5" ry="2.5" style="stroke:#1DE9B6;stroke-width:1;" width="171.4619" x="234.91" y="201"/><rect fill="#14253A" height="10" style="stroke:#1DE9B6;stroke-width:1;" width="15" x="386.3719" y="206"/><rect fill="#14253A" height="2" style="stroke:#1DE9B6;stroke-width:1;" width="4" x="384.3719" y="208"/><rect fill="#14253A" height="2" style="stroke:#1DE9B6;stroke-width:1;" width="4" x="384.3719" y="212"/><text fill="#E8EEF7" font-family="Helvetica" font-size="14" lengthAdjust="spacing" textLength="98.0342" x="249.91" y="231.7803">Home Assistant</text><text fill="#E8EEF7" font-family="Helvetica" font-size="14" lengthAdjust="spacing" textLength="131.4619" x="249.91" y="245.7803">(MID meter, sensors)</text></g><!--entity MQTT--><g class="entity" data-qualified-name="MQTT" data-source-line="21" id="ent0004"><path d="M49.96,211 L195.3252,211 C200.3252,211 200.3252,230 200.3252,230 C200.3252,230 200.3252,249 195.3252,249 L49.96,249 C44.96,249 44.96,230 44.96,230 C44.96,230 44.96,211 49.96,211" fill="#14253A" style="stroke:#1DE9B6;stroke-width:1;"/><path d="M195.3252,211 C190.3252,211 190.3252,230 190.3252,230 C190.3252,249 195.3252,249 195.3252,249" fill="none" style="stroke:#1DE9B6;stroke-width:1;"/><text fill="#E8EEF7" font-family="Helvetica" font-size="14" lengthAdjust="spacing" textLength="60.6963" x="49.96" y="226.7803">Mosquitto</text><text fill="#E8EEF7" font-family="Helvetica" font-size="14" lengthAdjust="spacing" textLength="135.3652" x="49.96" y="240.7803">(MQTT, optional TLS)</text></g><!--entity TRIPLOG--><g class="entity" data-qualified-name="TRIPLOG" data-source-line="22" id="ent0005"><rect fill="#14253A" height="58" rx="2.5" ry="2.5" style="stroke:#1DE9B6;stroke-width:1;" width="125.5859" x="158.85" y="347"/><rect fill="#14253A" height="10" style="stroke:#1DE9B6;stroke-width:1;" width="15" x="264.4359" y="352"/><rect fill="#14253A" height="2" style="stroke:#1DE9B6;stroke-width:1;" width="4" x="262.4359" y="354"/><rect fill="#14253A" height="2" style="stroke:#1DE9B6;stroke-width:1;" width="4" x="262.4359" y="358"/><text fill="#E8EEF7" font-family="Helvetica" font-size="14" lengthAdjust="spacing" textLength="42.793" x="173.85" y="377.7803">Triplog</text><text fill="#E8EEF7" font-family="Helvetica" font-size="14" lengthAdjust="spacing" textLength="85.5859" x="173.85" y="391.7803">(Flask, :3004)</text></g><!--entity INFLUX--><g class="entity" data-qualified-name="INFLUX" data-source-line="23" id="ent0006"><path d="M112.58,503 C112.58,493 155.6454,493 155.6454,493 C155.6454,493 198.7109,493 198.7109,503 L198.7109,540 C198.7109,550 155.6454,550 155.6454,550 C155.6454,550 112.58,550 112.58,540 L112.58,503" fill="#14253A" style="stroke:#1DE9B6;stroke-width:1;"/><path d="M112.58,503 C112.58,513 155.6454,513 155.6454,513 C155.6454,513 198.7109,513 198.7109,503" fill="none" style="stroke:#1DE9B6;stroke-width:1;"/><text fill="#E8EEF7" font-family="Helvetica" font-size="14" lengthAdjust="spacing" textLength="52.9102" x="122.58" y="527.7803">InfluxDB</text><text fill="#E8EEF7" font-family="Helvetica" font-size="14" lengthAdjust="spacing" textLength="66.1309" x="122.58" y="541.7803">(can-scan)</text></g><!--entity SQLITE--><g class="entity" data-qualified-name="SQLITE" data-source-line="24" id="ent0007"><path d="M294.18,503 C294.18,493 337.6385,493 337.6385,493 C337.6385,493 381.097,493 381.097,503 L381.097,540 C381.097,550 337.6385,550 337.6385,550 C337.6385,550 294.18,550 294.18,540 L294.18,503" fill="#14253A" style="stroke:#1DE9B6;stroke-width:1;"/><path d="M294.18,503 C294.18,513 337.6385,513 337.6385,513 C337.6385,513 381.097,513 381.097,503" fill="none" style="stroke:#1DE9B6;stroke-width:1;"/><text fill="#E8EEF7" font-family="Helvetica" font-size="14" lengthAdjust="spacing" textLength="42.7998" x="304.18" y="527.7803">SQLite</text><text fill="#E8EEF7" font-family="Helvetica" font-size="14" lengthAdjust="spacing" textLength="66.917" x="304.18" y="541.7803">(triplog.db)</text></g><!--link ESP to MQTT--><g class="link" data-entity-1="ent0002" data-entity-2="ent0004" data-link-type="dependency" data-source-line="26" id="lnk8"><path d="M122.64,113.45 C122.64,142.3 122.64,180.1 122.64,204.65" fill="none" id="ESP-to-MQTT" style="stroke:#1DE9B6;stroke-width:1;"/><polygon fill="#1DE9B6" points="122.64,210.65,126.64,201.65,122.64,205.65,118.64,201.65,122.64,210.65" style="stroke:#1DE9B6;stroke-width:1;"/><text fill="#E8EEF7" font-family="Helvetica" font-size="13" lengthAdjust="spacing" textLength="106.939" x="123.64" y="154.0103">binary v1 telegram</text><text fill="#E8EEF7" font-family="Helvetica" font-size="13" lengthAdjust="spacing" textLength="92.4663" x="130.8763" y="167.0103">(AES-256-CBC)</text></g><!--link MQTT to TRIPLOG--><g class="link" data-entity-1="ent0004" data-entity-2="ent0005" data-link-type="dependency" data-source-line="27" id="lnk9"><path d="M135.18,249.24 C152.04,273.76 178.7799,312.6664 198.6499,341.5564" fill="none" id="MQTT-to-TRIPLOG" style="stroke:#1DE9B6;stroke-width:1;"/><polygon fill="#1DE9B6" points="202.05,346.5,200.2456,336.8179,199.2166,342.3803,193.6541,341.3513,202.05,346.5" style="stroke:#1DE9B6;stroke-width:1;"/><text fill="#E8EEF7" font-family="Helvetica" font-size="13" lengthAdjust="spacing" textLength="55.6372" x="184.73" y="300.0103">subscribe</text><text fill="#E8EEF7" font-family="Helvetica" font-size="13" lengthAdjust="spacing" textLength="61.0771" x="182.01" y="313.0103">tele/+/data</text></g><!--link TRIPLOG to INFLUX--><g class="link" data-entity-1="ent0005" data-entity-2="ent0006" data-link-type="dependency" data-source-line="28" id="lnk10"><path d="M158.61,389.72 C133.66,398.17 107.44,412.11 92.64,435 C79.82,454.82 91.0344,472.2621 109.9944,488.6821" fill="none" id="TRIPLOG-to-INFLUX" style="stroke:#1DE9B6;stroke-width:1;"/><polygon fill="#1DE9B6" points="114.53,492.61,110.3453,483.6944,110.7504,489.3367,105.108,489.7418,114.53,492.61" style="stroke:#1DE9B6;stroke-width:1;"/><text fill="#E8EEF7" font-family="Helvetica" font-size="13" lengthAdjust="spacing" textLength="84.8936" x="93.64" y="446.0103">decrypt + write</text><text fill="#E8EEF7" font-family="Helvetica" font-size="13" lengthAdjust="spacing" textLength="75.8799" x="98.1468" y="459.0103">Line Protocol</text></g><!--link TRIPLOG to INFLUX--><g class="link" data-entity-1="ent0005" data-entity-2="ent0006" data-link-type="dependency" data-source-line="29" id="lnk11"><path d="M208.91,405.32 C201.34,422.11 191.5,443.8 182.64,463 C178.16,472.71 175.7559,477.8916 171.3159,487.3216" fill="none" id="TRIPLOG-to-INFLUX-1" style="stroke:#1DE9B6;stroke-width:1;"/><polygon fill="#1DE9B6" points="168.76,492.75,176.2128,486.3113,170.8899,488.2263,168.9749,482.9035,168.76,492.75" style="stroke:#1DE9B6;stroke-width:1;"/><text fill="#E8EEF7" font-family="Helvetica" font-size="13" lengthAdjust="spacing" textLength="44.8018" x="210.3554" y="446.0103">read for</text><text fill="#E8EEF7" font-family="Helvetica" font-size="13" lengthAdjust="spacing" textLength="74.4326" x="195.54" y="459.0103">trip detection</text></g><!--link HA to TRIPLOG--><g class="link" data-entity-1="ent0003" data-entity-2="ent0005" data-link-type="dependency" data-source-line="30" id="lnk12"><path d="M301.08,259.45 C283.73,284.69 261.8984,316.4352 244.5584,341.6652" fill="none" id="HA-to-TRIPLOG" style="stroke:#1DE9B6;stroke-width:1;"/><polygon fill="#1DE9B6" points="241.16,346.61,249.5541,341.4585,243.992,342.4894,242.9611,336.9272,241.16,346.61" style="stroke:#1DE9B6;stroke-width:1;"/><text fill="#E8EEF7" font-family="Helvetica" font-size="13" lengthAdjust="spacing" textLength="35.3945" x="318.9626" y="300.0103">POST</text><text fill="#E8EEF7" font-family="Helvetica" font-size="13" lengthAdjust="spacing" textLength="111.2998" x="281.01" y="313.0103">/api/charge/reading</text></g><!--link TRIPLOG to SQLITE--><g class="link" data-entity-1="ent0005" data-entity-2="ent0007" data-link-type="dependency" data-source-line="31" id="lnk13"><path d="M251.37,405.29 C260.47,414.45 270.28,424.88 278.64,435 C293.8,453.35 305.7347,470.4828 316.9147,487.6428" fill="none" id="TRIPLOG-to-SQLITE" style="stroke:#1DE9B6;stroke-width:1;"/><polygon fill="#1DE9B6" points="320.19,492.67,318.6285,482.9457,317.4606,488.4807,311.9256,487.3128,320.19,492.67" style="stroke:#1DE9B6;stroke-width:1;"/><text fill="#E8EEF7" font-family="Helvetica" font-size="13" lengthAdjust="spacing" textLength="81.6436" x="304.7686" y="446.0103">trips, charges,</text><text fill="#E8EEF7" font-family="Helvetica" font-size="13" lengthAdjust="spacing" textLength="90.3208" x="300.43" y="459.0103">locations, users</text></g><?plantuml-src ZPBFSjem4CRlVeejlJGJNFCdITiSEcDZ4pnZ0gdTcHwuoBOm6eJaI389jpv4twNtFagVf6iS64efxKMUiNxVVj_kwfLPq1M5aXCcBBraeYIAh20bsR9GiXBvG7Afu7Kdw7gzmG6Hqpcfk1bAOLwGu7qG3D-THku9cemeNrF3CdB0k4h9fvS2NJ_uuDqSNvvpoEIgb88AuntdxLxrhllkILIgdAg_MUwniuqHGrAYwRzTz-HPqnrrplEnejL_63ROMRSjygULPPZX54B_n_SnCHH-Vlq68rOiR4xNbECkiWKpD3ELefQr7nEqGZ-X7D-GKPkPU1F4qtuF79XuVlsvcyPuHabmqGAY0MyFfIE9hyBLccb3X47rEFG1Ar7L1as5baetkf5hRLD3QoprOyMCaJNza2HjaALXKX0EIHGtTFt_q2PHhEIoGCMG4xrimss_qxbgsEHJE8qcTzPk1TYFcFFgsVSGpuYmDHuD6juFeyzV3iZu8SA986SQWxTvsf1u4IQ1PM6xODiVju7W5b8cYDh0kWi69rRWBb3h1h7Tkxwn1zxWmjg2jU8b5efqbUfCiHHzQfLpwTG1h1rGmqqmP7EQgKrfu1AUr3PPn0I5gP96PfAVrYXASfXBXUMn2onHxnW7QetSeoJJIPpCX4DAvcGBeWhgr5ecYjyADxqZNfVJRMXGtPu9BZDILyQVbQPAMxy0?></g></svg>