<?plantuml 1.2026.2?><svg xmlns="http://www.w3.org/2000/svg" xmlns:xlink="http://www.w3.org/1999/xlink" contentStyleType="text/css" data-diagram-type="SEQUENCE" height="443px" preserveAspectRatio="none" style="width:583px;height:443px;background:#0E1B2C;" version="1.1" viewBox="0 0 583 443" width="583px" zoomAndPan="magnify"><title>ID&#183;Mate &#8212; Charge Tracker Flow (every 15 min)</title><defs/><g><rect fill="#0E1B2C" height="443" style="stroke:none;stroke-width:1;" width="583" x="0" y="0"/><text fill="#E8EEF7" font-family="Helvetica" font-size="22" font-weight="bold" lengthAdjust="spacing" textLength="484.1611" x="48.7668" y="31.9404">ID&#183;Mate &#8212; Charge Tracker Flow (every 15 min)</text><g class="participant-lifeline" data-entity-uid="part1" data-qualified-name="MID" id="part1-lifeline"><g><title>MID Meter</title><rect fill="#000000" fill-opacity="0.00000" height="259" width="8" x="55.6689" y="108"/><line style="stroke:#1DE9B6;stroke-width:1;stroke-dasharray:5,5;" x1="59" x2="59" y1="108" y2="367"/></g></g><g class="participant-lifeline" data-entity-uid="part2" data-qualified-name="HA" id="part2-lifeline"><g><title>Home Assistant</title><rect fill="#000000" fill-opacity="0.00000" height="259" width="8" x="222.7261" y="108"/><line style="stroke:#1DE9B6;stroke-width:1;stroke-dasharray:5,5;" x1="226.709" x2="226.709" y1="108" y2="367"/></g></g><g class="participant-lifeline" data-entity-uid="part3" data-qualified-name="T" id="part3-lifeline"><g><title>Triplog</title><rect fill="#000000" fill-opacity="0.00000" height="259" width="8" x="411.4351" y="108"/><line style="stroke:#1DE9B6;stroke-width:1;stroke-dasharray:5,5;" x1="414.8423" x2="414.8423" y1="108" y2="367"/></g></g><g class="participant-lifeline" data-entity-uid="part4" data-qualified-name="DB" id="part4-lifeline"><g><title>SQLite</title><rect fill="#000000" fill-opacity="0.00000" height="259" width="8" x="544.2949" y="108"/><line style="stroke:#1DE9B6;stroke-width:1;stroke-dasharray:5,5;" x1="547.895" x2="547.895" y1="108" y2="367"/></g></g><g class="participant participant-head" data-entity-uid="part1" data-qualified-name="MID" id="part1-head"><rect fill="#14253A" height="42" rx="2.5" ry="2.5" style="stroke:#1DE9B6;stroke-width:1;" width="79.3379" x="20" y="65"/><text fill="#E8EEF7" font-family="Helvetica" font-size="14" lengthAdjust="spacing" textLength="65.3379" x="27" y="82.7803">MID Meter</text><text fill="#E8EEF7" font-family="Helvetica" font-size="14" lengthAdjust="spacing" textLength="59.1172" x="30.1104" y="96.7803">(Wallbox)</text></g><g class="participant participant-tail" data-entity-uid="part1" data-qualified-name="MID" id="part1-tail"><rect fill="#14253A" height="42" rx="2.5" ry="2.5" style="stroke:#1DE9B6;stroke-width:1;" width="79.3379" x="20" y="366"/><text fill="#E8EEF7" font-family="Helvetica" font-size="14" lengthAdjust="spacing" textLength="65.3379" x="27" y="383.7803">MID Meter</text><text fill="#E8EEF7" font-family="Helvetica" font-size="14" lengthAdjust="spacing" textLength="59.1172" x="30.1104" y="397.7803">(Wallbox)</text></g><g class="participant participant-head" data-entity-uid="part2" data-qualified-name="HA" id="part2-head"><rect fill="#14253A" height="28" rx="2.5" ry="2.5" style="stroke:#1DE9B6;stroke-width:1;" width="112.0342" x="170.709" y="79"/><text fill="#E8EEF7" font-family="Helvetica" font-size="14" lengthAdjust="spacing" textLength="98.0342" x="177.709" y="96.7803">Home Assistant</text></g><g class="participant participant-tail" data-entity-uid="part2" data-qualified-name="HA" id="part2-tail"><rect fill="#14253A" height="28" rx="2.5" ry="2.5" style="stroke:#1DE9B6;stroke-width:1;" width="112.0342" x="170.709" y="366"/><text fill="#E8EEF7" font-family="Helvetica" font-size="14" lengthAdjust="spacing" textLength="98.0342" x="177.709" y="383.7803">Home Assistant</text></g><g class="participant participant-head" data-entity-uid="part3" data-qualified-name="T" id="part3-head"><rect fill="#14253A" height="42" rx="2.5" ry="2.5" style="stroke:#1DE9B6;stroke-width:1;" width="143.1855" x="343.8423" y="65"/><text fill="#E8EEF7" font-family="Helvetica" font-size="14" lengthAdjust="spacing" textLength="42.793" x="394.0386" y="82.7803">Triplog</text><text fill="#E8EEF7" font-family="Helvetica" font-size="14" lengthAdjust="spacing" textLength="129.1855" x="350.8423" y="96.7803">(/api/charge/reading)</text></g><g class="participant participant-tail" data-entity-uid="part3" data-qualified-name="T" id="part3-tail"><rect fill="#14253A" height="42" rx="2.5" ry="2.5" style="stroke:#1DE9B6;stroke-width:1;" width="143.1855" x="343.8423" y="366"/><text fill="#E8EEF7" font-family="Helvetica" font-size="14" lengthAdjust="spacing" textLength="42.793" x="394.0386" y="383.7803">Triplog</text><text fill="#E8EEF7" font-family="Helvetica" font-size="14" lengthAdjust="spacing" textLength="129.1855" x="350.8423" y="397.7803">(/api/charge/reading)</text></g><g class="participant participant-head" data-entity-uid="part4" data-qualified-name="DB" id="part4-head"><text fill="#E8EEF7" font-family="Helvetica" font-size="14" lengthAdjust="spacing" textLength="42.7998" x="523.895" y="104.7803">SQLite</text><path d="M530.2949,58 C530.2949,48 548.2949,48 548.2949,48 C548.2949,48 566.2949,48 566.2949,58 L566.2949,84 C566.2949,94 548.2949,94 548.2949,94 C548.2949,94 530.2949,94 530.2949,84 L530.2949,58" fill="#FFFFFF" style="stroke:#000000;stroke-width:1;"/><path d="M530.2949,58 C530.2949,68 548.2949,68 548.2949,68 C548.2949,68 566.2949,68 566.2949,58" fill="none" style="stroke:#000000;stroke-width:1;"/></g><g class="participant participant-tail" data-entity-uid="part4" data-qualified-name="DB" id="part4-tail"><text fill="#E8EEF7" font-family="Helvetica" font-size="14" lengthAdjust="spacing" textLength="42.7998" x="523.895" y="376.7803">SQLite</text><path d="M530.2949,390 C530.2949,380 548.2949,380 548.2949,380 C548.2949,380 566.2949,380 566.2949,390 L566.2949,416 C566.2949,426 548.2949,426 548.2949,426 C548.2949,426 530.2949,426 530.2949,416 L530.2949,390" fill="#FFFFFF" style="stroke:#000000;stroke-width:1;"/><path d="M530.2949,390 C530.2949,400 548.2949,400 548.2949,400 C548.2949,400 566.2949,400 566.2949,390" fill="none" style="stroke:#000000;stroke-width:1;"/></g><g class="message" data-entity-1="part1" data-entity-2="part2" id="msg1"><polygon fill="#1DE9B6" points="214.7261,146,224.7261,150,214.7261,154,218.7261,150" style="stroke:#1DE9B6;stroke-width:1;"/><line style="stroke:#1DE9B6;stroke-width:1;" x1="59.6689" x2="220.7261" y1="150" y2="150"/><text fill="#E8EEF7" font-family="Helvetica" font-size="13" lengthAdjust="spacing" textLength="75.8608" x="66.6689" y="132.0103">Modbus/TCP</text><text fill="#E8EEF7" font-family="Helvetica" font-size="13" lengthAdjust="spacing" textLength="143.0571" x="66.6689" y="145.0103">(energy, meter start/end)</text></g><g class="message" data-entity-1="part2" data-entity-2="part2" id="msg2"><line style="stroke:#1DE9B6;stroke-width:1;" x1="226.7261" x2="268.7261" y1="203" y2="203"/><line style="stroke:#1DE9B6;stroke-width:1;" x1="268.7261" x2="268.7261" y1="203" y2="216"/><line style="stroke:#1DE9B6;stroke-width:1;" x1="227.7261" x2="268.7261" y1="216" y2="216"/><polygon fill="#1DE9B6" points="237.7261,212,227.7261,216,237.7261,220,233.7261,216" style="stroke:#1DE9B6;stroke-width:1;"/><text fill="#E8EEF7" font-family="Helvetica" font-size="13" lengthAdjust="spacing" textLength="165.4834" x="233.7261" y="172.0103">sensor.wallbox_energy_15m</text><text fill="#E8EEF7" font-family="Helvetica" font-size="13" lengthAdjust="spacing" textLength="110.5571" x="233.7261" y="185.0103">sensor.tibber_price</text><text fill="#E8EEF7" font-family="Helvetica" font-size="13" lengthAdjust="spacing" textLength="145.2471" x="233.7261" y="198.0103">sensor.vehicle_odometer</text></g><g class="message" data-entity-1="part2" data-entity-2="part3" id="msg3"><polygon fill="#1DE9B6" points="403.4351,252,413.4351,256,403.4351,260,407.4351,256" style="stroke:#1DE9B6;stroke-width:1;"/><line style="stroke:#1DE9B6;stroke-width:1;" x1="226.7261" x2="409.4351" y1="256" y2="256"/><text fill="#E8EEF7" font-family="Helvetica" font-size="13" lengthAdjust="spacing" textLength="73.6772" x="233.7261" y="238.0103">POST JSON</text><text fill="#E8EEF7" font-family="Helvetica" font-size="13" lengthAdjust="spacing" textLength="164.709" x="233.7261" y="251.0103">(timestamp, vehicle, kwh, ...)</text></g><g class="message" data-entity-1="part3" data-entity-2="part3" id="msg4"><line style="stroke:#1DE9B6;stroke-width:1;" x1="415.4351" x2="457.4351" y1="296" y2="296"/><line style="stroke:#1DE9B6;stroke-width:1;" x1="457.4351" x2="457.4351" y1="296" y2="309"/><line style="stroke:#1DE9B6;stroke-width:1;" x1="416.4351" x2="457.4351" y1="309" y2="309"/><polygon fill="#1DE9B6" points="426.4351,305,416.4351,309,426.4351,313,422.4351,309" style="stroke:#1DE9B6;stroke-width:1;"/><text fill="#E8EEF7" font-family="Helvetica" font-size="13" lengthAdjust="spacing" textLength="100.4517" x="422.4351" y="278.0103">session detection</text><text fill="#E8EEF7" font-family="Helvetica" font-size="13" lengthAdjust="spacing" textLength="118.8599" x="422.4351" y="291.0103">(vehicle + odometer)</text></g><g class="message" data-entity-1="part3" data-entity-2="part4" id="msg5"><polygon fill="#1DE9B6" points="536.2949,345,546.2949,349,536.2949,353,540.2949,349" style="stroke:#1DE9B6;stroke-width:1;"/><line style="stroke:#1DE9B6;stroke-width:1;" x1="415.4351" x2="542.2949" y1="349" y2="349"/><text fill="#E8EEF7" font-family="Helvetica" font-size="13" lengthAdjust="spacing" textLength="78.7681" x="422.4351" y="331.0103">insert reading</text><text fill="#E8EEF7" font-family="Helvetica" font-size="13" lengthAdjust="spacing" textLength="98.6553" x="422.4351" y="344.0103">+ update session</text></g><?plantuml-src bPBDRjf04CVl-nHJUWaAnIKj_JfKmjY8L26Xmb8lI6XjJyoAzQuxkuRcreV8k-JUH-cJT02J9XLgseCbU_Vt_zXPF_DBB14gBPKHRgLC9KcMaCfiLP2jJJwqsX8yVndtmhFX0oB7QrbhFxB6DqZyBev7RuyZbv93ngZNw5Kc7p0ElzPeCXmGsKrZr8lYz-6R8z25kkR7O6WfHtgAdahYC5L9uyC_ZzDxVTP_DNX2zByfVvl5_JapR-dVw-pn8qM4LruZd4S_xYRI8_pyVWl3fQG28I6sHuAHjXiumJNI3VJwK2hJ5gBwNHTQa_C89kYHvkRaYzGwjT_QBP0EUECnERPyVmFdbFFylMF6WyT8GghIjc2hG5Ogo7Pb0aAPArFiRHEHIozJwH1QiyyNokDkEGg5s5PvyP5DuGDCR9xMBaY6KpP3WrJSTA3SzWIE9n-WoTk2qOF0eN6Mkflz4HPxoQBNB-UcsV8gJP4M5QaCxnVNk5IPneNDxSwziKpOSNerI-3JxEgI6tXL8kUMLGSQHGTMcsK7kjrkMoG7YKCUZpNyrtlCFB-njE7X50uPZI0AMQ6u27beHZGtfr1N-VOo6oln2m00?></g></svg>