<?plantuml 1.2026.2?><svg xmlns="http://www.w3.org/2000/svg" xmlns:xlink="http://www.w3.org/1999/xlink" contentStyleType="text/css" data-diagram-type="DESCRIPTION" height="439px" preserveAspectRatio="none" style="width:496px;height:439px;background:#0E1B2C;" version="1.1" viewBox="0 0 496 439" width="496px" zoomAndPan="magnify"><title>ID&#183;Mate &#8212; Deployment (Synology NAS)</title><defs/><g><rect fill="#0E1B2C" height="439" style="stroke:none;stroke-width:1;" width="496" x="0" y="0"/><g class="title" data-source-line="13"><text fill="#E8EEF7" font-family="Helvetica" font-size="22" font-weight="bold" lengthAdjust="spacing" textLength="410.7061" x="38.147" y="31.9404">ID&#183;Mate &#8212; Deployment (Synology NAS)</text></g><!--cluster Synology NAS (DSM)--><g class="cluster" data-qualified-name="Synology NAS .DSM." data-source-line="15" id="ent0002"><polygon fill="#14253A" points="21,64,31,54,479,54,479,412,469,422,21,422,21,64" style="stroke:#1DE9B6;stroke-width:1;"/><line style="stroke:#1DE9B6;stroke-width:1;" x1="469" x2="479" y1="64" y2="54"/><line style="stroke:#1DE9B6;stroke-width:1;" x1="21" x2="469" y1="64" y2="64"/><line style="stroke:#1DE9B6;stroke-width:1;" x1="469" x2="469" y1="64" y2="422"/><text fill="#E8EEF7" font-family="Helvetica" font-size="14" font-weight="bold" lengthAdjust="spacing" textLength="140.7793" x="175.6104" y="77.7803">Synology NAS (DSM)</text></g><!--cluster Docker (Portainer)--><g class="cluster" data-qualified-name="Synology NAS .DSM..Docker .Portainer." data-source-line="16" id="ent0003"><polygon fill="#14253A" points="45,110,55,100,455,100,455,202,445,212,45,212,45,110" style="stroke:#1DE9B6;stroke-width:1;"/><line style="stroke:#1DE9B6;stroke-width:1;" x1="445" x2="455" y1="110" y2="100"/><line style="stroke:#1DE9B6;stroke-width:1;" x1="45" x2="445" y1="110" y2="110"/><line style="stroke:#1DE9B6;stroke-width:1;" x1="445" x2="445" y1="110" y2="212"/><text fill="#E8EEF7" font-family="Helvetica" font-size="14" font-weight="bold" lengthAdjust="spacing" textLength="122.1445" x="184.9277" y="123.7803">Docker (Portainer)</text></g><!--cluster Volumes--><g class="cluster" data-qualified-name="Synology NAS .DSM..Volumes" data-source-line="21" id="ent0007"><polygon fill="#14253A" points="125,282,135,272,365,272,365,388,355,398,125,398,125,282" style="stroke:#1DE9B6;stroke-width:1;"/><line style="stroke:#1DE9B6;stroke-width:1;" x1="355" x2="365" y1="282" y2="272"/><line style="stroke:#1DE9B6;stroke-width:1;" x1="125" x2="355" y1="282" y2="282"/><line style="stroke:#1DE9B6;stroke-width:1;" x1="355" x2="355" y1="282" y2="398"/><text fill="#E8EEF7" font-family="Helvetica" font-size="14" font-weight="bold" lengthAdjust="spacing" textLength="58.3516" x="211.8242" y="295.7803">Volumes</text></g><!--entity M--><g class="entity" data-qualified-name="Synology NAS .DSM..Docker .Portainer..M" data-source-line="17" id="ent0004"><rect fill="#1A2B42" height="58" rx="2.5" ry="2.5" style="stroke:#1DE9B6;stroke-width:1;" width="132.5518" x="60.72" y="138"/><rect fill="#1A2B42" height="10" style="stroke:#1DE9B6;stroke-width:1;" width="15" x="173.2718" y="143"/><rect fill="#1A2B42" height="2" style="stroke:#1DE9B6;stroke-width:1;" width="4" x="171.2718" y="145"/><rect fill="#1A2B42" height="2" style="stroke:#1DE9B6;stroke-width:1;" width="4" x="171.2718" y="149"/><text fill="#E8EEF7" font-family="Helvetica" font-size="14" lengthAdjust="spacing" textLength="60.6963" x="75.72" y="168.7803">Mosquitto</text><text fill="#E8EEF7" font-family="Helvetica" font-size="14" lengthAdjust="spacing" textLength="92.5518" x="75.72" y="182.7803">(MQTT broker)</text></g><!--entity T--><g class="entity" data-qualified-name="Synology NAS .DSM..Docker .Portainer..T" data-source-line="18" id="ent0005"><rect fill="#1A2B42" height="58" rx="2.5" ry="2.5" style="stroke:#1DE9B6;stroke-width:1;" width="82.793" x="228.6" y="138"/><rect fill="#1A2B42" height="10" style="stroke:#1DE9B6;stroke-width:1;" width="15" x="291.393" y="143"/><rect fill="#1A2B42" height="2" style="stroke:#1DE9B6;stroke-width:1;" width="4" x="289.393" y="145"/><rect fill="#1A2B42" height="2" style="stroke:#1DE9B6;stroke-width:1;" width="4" x="289.393" y="149"/><text fill="#E8EEF7" font-family="Helvetica" font-size="14" lengthAdjust="spacing" textLength="42.793" x="243.6" y="168.7803">Triplog</text><text fill="#E8EEF7" font-family="Helvetica" font-size="14" lengthAdjust="spacing" textLength="42.7725" x="243.6" y="182.7803">(Flask)</text></g><!--entity I--><g class="entity" data-qualified-name="Synology NAS .DSM..Docker .Portainer..I" data-source-line="19" id="ent0006"><rect fill="#1A2B42" height="44" rx="2.5" ry="2.5" style="stroke:#1DE9B6;stroke-width:1;" width="92.9102" x="346.54" y="145"/><rect fill="#1A2B42" height="10" style="stroke:#1DE9B6;stroke-width:1;" width="15" x="419.4502" y="150"/><rect fill="#1A2B42" height="2" style="stroke:#1DE9B6;stroke-width:1;" width="4" x="417.4502" y="152"/><rect fill="#1A2B42" height="2" style="stroke:#1DE9B6;stroke-width:1;" width="4" x="417.4502" y="156"/><text fill="#E8EEF7" font-family="Helvetica" font-size="14" lengthAdjust="spacing" textLength="52.9102" x="361.54" y="175.7803">InfluxDB</text></g><!--entity V--><g class="entity" data-qualified-name="Synology NAS .DSM..Volumes.V" data-source-line="22" id="ent0008"><rect fill="#1A2B42" height="72" rx="2.5" ry="2.5" style="stroke:#1DE9B6;stroke-width:1;" width="208.8477" x="140.58" y="310"/><rect fill="#1A2B42" height="10" style="stroke:#1DE9B6;stroke-width:1;" width="15" x="329.4277" y="315"/><rect fill="#1A2B42" height="2" style="stroke:#1DE9B6;stroke-width:1;" width="4" x="327.4277" y="317"/><rect fill="#1A2B42" height="2" style="stroke:#1DE9B6;stroke-width:1;" width="4" x="327.4277" y="321"/><text fill="#E8EEF7" font-family="Helvetica" font-size="14" lengthAdjust="spacing" textLength="101.1514" x="155.58" y="340.7803">Named volumes</text><text fill="#E8EEF7" font-family="Helvetica" font-size="14" lengthAdjust="spacing" textLength="97.2686" x="155.58" y="354.7803">(or bind mounts</text><text fill="#E8EEF7" font-family="Helvetica" font-size="14" lengthAdjust="spacing" textLength="168.8477" x="155.58" y="368.7803">/volume1/docker/idmate/...)</text></g><!--link M to V--><g class="link" data-entity-1="ent0004" data-entity-2="ent0008" data-link-type="dependency" data-source-line="26" id="lnk9"><path d="M125.77,196.18 C126.16,214.3 128.95,237.77 139,256 C150.6,277.04 164.5788,291.5529 183.0688,305.8929" fill="none" id="M-to-V" style="stroke:#1DE9B6;stroke-width:1;"/><polygon fill="#1DE9B6" points="187.81,309.57,183.1496,300.8936,183.859,306.5058,178.2468,307.2152,187.81,309.57" style="stroke:#1DE9B6;stroke-width:1;"/><text fill="#E8EEF7" font-family="Helvetica" font-size="13" lengthAdjust="spacing" textLength="89.6035" x="140" y="239.0103">mosquitto-data,</text><text fill="#E8EEF7" font-family="Helvetica" font-size="13" lengthAdjust="spacing" textLength="88.8608" x="140.3713" y="252.0103">mosquitto-certs</text></g><!--link T to V--><g class="link" data-entity-1="ent0005" data-entity-2="ent0008" data-link-type="dependency" data-source-line="27" id="lnk10"><path d="M253.66,196.39 C248.93,206.1 244.39,217.23 242,228 C236.04,254.88 236.6083,280.1123 239.0483,303.5323" fill="none" id="T-to-V" style="stroke:#1DE9B6;stroke-width:1;"/><polygon fill="#1DE9B6" points="239.67,309.5,242.7159,300.134,239.1519,304.5269,234.7589,300.9629,239.67,309.5" style="stroke:#1DE9B6;stroke-width:1;"/><text fill="#E8EEF7" font-family="Helvetica" font-size="13" lengthAdjust="spacing" textLength="65.0381" x="255.9968" y="239.0103">triplog-data</text><text fill="#E8EEF7" font-family="Helvetica" font-size="13" lengthAdjust="spacing" textLength="91.0317" x="243" y="252.0103">(SQLite, media)</text></g><!--link I to V--><g class="link" data-entity-1="ent0006" data-entity-2="ent0008" data-link-type="dependency" data-source-line="28" id="lnk11"><path d="M382,189.29 C371.98,207.78 356.16,234.84 339,256 C323.43,275.2 308.3304,290.3058 291.1004,305.8858" fill="none" id="I-to-V" style="stroke:#1DE9B6;stroke-width:1;"/><polygon fill="#1DE9B6" points="286.65,309.91,296.0084,306.8406,290.3586,306.5565,290.6428,300.9068,286.65,309.91" style="stroke:#1DE9B6;stroke-width:1;"/><text fill="#E8EEF7" font-family="Helvetica" font-size="13" lengthAdjust="spacing" textLength="78.0508" x="362.7482" y="239.0103">influxdb-data,</text><text fill="#E8EEF7" font-family="Helvetica" font-size="13" lengthAdjust="spacing" textLength="83.8271" x="359.86" y="252.0103">influxdb-config</text></g><?plantuml-src VPBVJi8m5CRl-nH7l854G13_NfWmDYA98vejN75JreBDkXxiEfGO4X_2T_7UH_59h1jE0eJBdk_Nyttdj4VcYISSvf8AHT9Og3dLD849ZUAPnaon7ahKS7pgjPnsRuDWV4epQVgep1hnhZolVxaV6L9hSiVbWXiHqGscgpM-h1kqNE_QkTWG5JBkR2TfTThdPzrj2ZNZ-b2VGq4ZJEQek3AxPjssqsdlHGywbjYkBJ72I0u3z-lJfuR3z_i7k7mkSPbO7gh1Kbb-jeHXDwWHyfiTAfj5gBg1Nwl06m4eL1UZc6keFg0szXsvNglmdmCgFgRFcJ06nwhgFuOXJ3J6EKfJyBVfK0iRQMRPlgHfN53XDZLGKvczkawk3gowAZEDK6O9J_S4-VqB31Q5RWtiRYP2CKZiteqjD0kfrMJvM4t14hkdPgFHA5ACSfyL8JxKwxSmWXjxTJrRdL53JyRgln1nRL8IbgWf1ij1QnuytWl3Jy164hH61YKdyj7OvAzZUOvGJSMC_000?></g></svg>