<?plantuml 1.2026.2?><svg xmlns="http://www.w3.org/2000/svg" xmlns:xlink="http://www.w3.org/1999/xlink" contentStyleType="text/css" data-diagram-type="DESCRIPTION" height="471px" preserveAspectRatio="none" style="width:2221px;height:471px;background:#0E1B2C;" version="1.1" viewBox="0 0 2221 471" width="2221px" zoomAndPan="magnify"><title>IDmate &#8212; Triplog Internal Architecture (Flask blueprints)</title><defs/><g><rect fill="#0E1B2C" height="471" style="stroke:none;stroke-width:1;" width="2221" x="0" y="0"/><g class="title" data-source-line="17"><text fill="#E8EEF7" font-family="Helvetica" font-size="22" font-weight="bold" lengthAdjust="spacing" textLength="597.749" x="807.2855" y="31.9404">IDmate &#8212; Triplog Internal Architecture (Flask blueprints)</text></g><!--cluster blueprints/--><g class="cluster" data-qualified-name="blueprints." data-source-line="21" id="ent0003"><path d="M1115.82,215 L1188.3786,215 A3.75,3.75 0 0 1 1190.8786,217.5 L1197.8786,235 L2211.82,235 A2.5,2.5 0 0 1 2214.32,237.5 L2214.32,333.5 A2.5,2.5 0 0 1 2211.82,336 L1115.82,336 A2.5,2.5 0 0 1 1113.32,333.5 L1113.32,217.5 A2.5,2.5 0 0 1 1115.82,215" fill="#0E1B2C" style="stroke:#2E4763;stroke-width:1;"/><line style="stroke:#2E4763;stroke-width:1;" x1="1113.32" x2="1197.8786" y1="235" y2="235"/><text fill="#9FB3CC" font-family="Helvetica" font-size="14" font-weight="bold" lengthAdjust="spacing" textLength="71.5586" x="1117.32" y="227.7803">blueprints/</text></g><!--cluster core modules--><g class="cluster" data-qualified-name="core modules" data-source-line="30" id="ent0010"><path d="M155.82,222 L247.8473,222 A3.75,3.75 0 0 1 250.3473,224.5 L257.3473,242 L1086.82,242 A2.5,2.5 0 0 1 1089.32,244.5 L1089.32,326.5 A2.5,2.5 0 0 1 1086.82,329 L155.82,329 A2.5,2.5 0 0 1 153.32,326.5 L153.32,224.5 A2.5,2.5 0 0 1 155.82,222" fill="#0E1B2C" style="stroke:#2E4763;stroke-width:1;"/><line style="stroke:#2E4763;stroke-width:1;" x1="153.32" x2="257.3473" y1="242" y2="242"/><text fill="#9FB3CC" font-family="Helvetica" font-size="14" font-weight="bold" lengthAdjust="spacing" textLength="91.0273" x="157.32" y="234.7803">core modules</text></g><!--entity AUTH--><g class="entity" data-qualified-name="blueprints..AUTH" data-source-line="22" id="ent0004"><rect fill="#14253A" height="58" rx="2.5" ry="2.5" style="stroke:#1DE9B6;stroke-width:1;" width="154.3857" x="1129.13" y="255"/><rect fill="#14253A" height="10" style="stroke:#1DE9B6;stroke-width:1;" width="15" x="1263.5157" y="260"/><rect fill="#14253A" height="2" style="stroke:#1DE9B6;stroke-width:1;" width="4" x="1261.5157" y="262"/><rect fill="#14253A" height="2" style="stroke:#1DE9B6;stroke-width:1;" width="4" x="1261.5157" y="266"/><text fill="#E8EEF7" font-family="Helvetica" font-size="14" lengthAdjust="spacing" textLength="27.248" x="1144.13" y="285.7803">auth</text><text fill="#E8EEF7" font-family="Helvetica" font-size="14" lengthAdjust="spacing" textLength="114.3857" x="1144.13" y="299.7803">(login, 2FA, setup)</text></g><!--entity TRIPS--><g class="entity" data-qualified-name="blueprints..TRIPS" data-source-line="23" id="ent0005"><rect fill="#14253A" height="58" rx="2.5" ry="2.5" style="stroke:#1DE9B6;stroke-width:1;" width="132.6064" x="1318.02" y="255"/><rect fill="#14253A" height="10" style="stroke:#1DE9B6;stroke-width:1;" width="15" x="1430.6264" y="260"/><rect fill="#14253A" height="2" style="stroke:#1DE9B6;stroke-width:1;" width="4" x="1428.6264" y="262"/><rect fill="#14253A" height="2" style="stroke:#1DE9B6;stroke-width:1;" width="4" x="1428.6264" y="266"/><text fill="#E8EEF7" font-family="Helvetica" font-size="14" lengthAdjust="spacing" textLength="26.4482" x="1333.02" y="285.7803">trips</text><text fill="#E8EEF7" font-family="Helvetica" font-size="14" lengthAdjust="spacing" textLength="92.6064" x="1333.02" y="299.7803">(logbook, tags)</text></g><!--entity JOUR--><g class="entity" data-qualified-name="blueprints..JOUR" data-source-line="24" id="ent0006"><rect fill="#14253A" height="58" rx="2.5" ry="2.5" style="stroke:#1DE9B6;stroke-width:1;" width="141.1582" x="1485.74" y="255"/><rect fill="#14253A" height="10" style="stroke:#1DE9B6;stroke-width:1;" width="15" x="1606.8982" y="260"/><rect fill="#14253A" height="2" style="stroke:#1DE9B6;stroke-width:1;" width="4" x="1604.8982" y="262"/><rect fill="#14253A" height="2" style="stroke:#1DE9B6;stroke-width:1;" width="4" x="1604.8982" y="266"/><text fill="#E8EEF7" font-family="Helvetica" font-size="14" lengthAdjust="spacing" textLength="52.917" x="1500.74" y="285.7803">journeys</text><text fill="#E8EEF7" font-family="Helvetica" font-size="14" lengthAdjust="spacing" textLength="101.1582" x="1500.74" y="299.7803">(grouping, GPX)</text></g><!--entity CHG--><g class="entity" data-qualified-name="blueprints..CHG" data-source-line="25" id="ent0007"><rect fill="#14253A" height="58" rx="2.5" ry="2.5" style="stroke:#1DE9B6;stroke-width:1;" width="138.8066" x="1661.92" y="255"/><rect fill="#14253A" height="10" style="stroke:#1DE9B6;stroke-width:1;" width="15" x="1780.7266" y="260"/><rect fill="#14253A" height="2" style="stroke:#1DE9B6;stroke-width:1;" width="4" x="1778.7266" y="262"/><rect fill="#14253A" height="2" style="stroke:#1DE9B6;stroke-width:1;" width="4" x="1778.7266" y="266"/><text fill="#E8EEF7" font-family="Helvetica" font-size="14" lengthAdjust="spacing" textLength="49.8066" x="1676.92" y="285.7803">charges</text><text fill="#E8EEF7" font-family="Helvetica" font-size="14" lengthAdjust="spacing" textLength="98.8066" x="1676.92" y="299.7803">(charge tracker)</text></g><!--entity ADMIN--><g class="entity" data-qualified-name="blueprints..ADMIN" data-source-line="26" id="ent0008"><rect fill="#14253A" height="72" rx="2.5" ry="2.5" style="stroke:#1DE9B6;stroke-width:1;" width="159.0684" x="1835.79" y="248"/><rect fill="#14253A" height="10" style="stroke:#1DE9B6;stroke-width:1;" width="15" x="1974.8584" y="253"/><rect fill="#14253A" height="2" style="stroke:#1DE9B6;stroke-width:1;" width="4" x="1972.8584" y="255"/><rect fill="#14253A" height="2" style="stroke:#1DE9B6;stroke-width:1;" width="4" x="1972.8584" y="259"/><text fill="#E8EEF7" font-family="Helvetica" font-size="14" lengthAdjust="spacing" textLength="38.1309" x="1850.79" y="278.7803">admin</text><text fill="#E8EEF7" font-family="Helvetica" font-size="14" lengthAdjust="spacing" textLength="119.0684" x="1850.79" y="292.7803">(geofencing, users,</text><text fill="#E8EEF7" font-family="Helvetica" font-size="14" lengthAdjust="spacing" textLength="111.2686" x="1850.79" y="306.7803">vehicles, settings)</text></g><!--entity PROF--><g class="entity" data-qualified-name="blueprints..PROF" data-source-line="27" id="ent0009"><rect fill="#14253A" height="58" rx="2.5" ry="2.5" style="stroke:#1DE9B6;stroke-width:1;" width="168.3789" x="2030.13" y="255"/><rect fill="#14253A" height="10" style="stroke:#1DE9B6;stroke-width:1;" width="15" x="2178.5089" y="260"/><rect fill="#14253A" height="2" style="stroke:#1DE9B6;stroke-width:1;" width="4" x="2176.5089" y="262"/><rect fill="#14253A" height="2" style="stroke:#1DE9B6;stroke-width:1;" width="4" x="2176.5089" y="266"/><text fill="#E8EEF7" font-family="Helvetica" font-size="14" lengthAdjust="spacing" textLength="38.1309" x="2045.13" y="285.7803">profile</text><text fill="#E8EEF7" font-family="Helvetica" font-size="14" lengthAdjust="spacing" textLength="128.3789" x="2045.13" y="299.7803">(avatar, theme, 2FA)</text></g><!--entity DET--><g class="entity" data-qualified-name="core modules.DET" data-source-line="31" id="ent0011"><rect fill="#14253A" height="58" rx="2.5" ry="2.5" style="stroke:#1DE9B6;stroke-width:1;" width="129.4824" x="169.58" y="255"/><rect fill="#14253A" height="10" style="stroke:#1DE9B6;stroke-width:1;" width="15" x="279.0624" y="260"/><rect fill="#14253A" height="2" style="stroke:#1DE9B6;stroke-width:1;" width="4" x="277.0624" y="262"/><rect fill="#14253A" height="2" style="stroke:#1DE9B6;stroke-width:1;" width="4" x="277.0624" y="266"/><text fill="#E8EEF7" font-family="Helvetica" font-size="14" lengthAdjust="spacing" textLength="69.2617" x="184.58" y="285.7803">detector.py</text><text fill="#E8EEF7" font-family="Helvetica" font-size="14" lengthAdjust="spacing" textLength="89.4824" x="184.58" y="299.7803">(trip detection)</text></g><!--entity IMP--><g class="entity" data-qualified-name="core modules.IMP" data-source-line="32" id="ent0012"><rect fill="#14253A" height="58" rx="2.5" ry="2.5" style="stroke:#1DE9B6;stroke-width:1;" width="166.0547" x="334.29" y="255"/><rect fill="#14253A" height="10" style="stroke:#1DE9B6;stroke-width:1;" width="15" x="480.3447" y="260"/><rect fill="#14253A" height="2" style="stroke:#1DE9B6;stroke-width:1;" width="4" x="478.3447" y="262"/><rect fill="#14253A" height="2" style="stroke:#1DE9B6;stroke-width:1;" width="4" x="478.3447" y="266"/><text fill="#E8EEF7" font-family="Helvetica" font-size="14" lengthAdjust="spacing" textLength="84.041" x="349.29" y="285.7803">import_job.py</text><text fill="#E8EEF7" font-family="Helvetica" font-size="14" lengthAdjust="spacing" textLength="126.0547" x="349.29" y="299.7803">teslamate_import.py</text></g><!--entity GEO--><g class="entity" data-qualified-name="core modules.GEO" data-source-line="33" id="ent0013"><rect fill="#14253A" height="58" rx="2.5" ry="2.5" style="stroke:#1DE9B6;stroke-width:1;" width="117.0547" x="535.79" y="255"/><rect fill="#14253A" height="10" style="stroke:#1DE9B6;stroke-width:1;" width="15" x="632.8447" y="260"/><rect fill="#14253A" height="2" style="stroke:#1DE9B6;stroke-width:1;" width="4" x="630.8447" y="262"/><rect fill="#14253A" height="2" style="stroke:#1DE9B6;stroke-width:1;" width="4" x="630.8447" y="266"/><text fill="#E8EEF7" font-family="Helvetica" font-size="14" lengthAdjust="spacing" textLength="77.0547" x="550.79" y="285.7803">geocoder.py</text><text fill="#E8EEF7" font-family="Helvetica" font-size="14" lengthAdjust="spacing" textLength="76.2275" x="550.79" y="299.7803">(Nominatim)</text></g><!--entity MIG--><g class="entity" data-qualified-name="core modules.MIG" data-source-line="34" id="ent0014"><rect fill="#14253A" height="58" rx="2.5" ry="2.5" style="stroke:#1DE9B6;stroke-width:1;" width="194.041" x="688.3" y="255"/><rect fill="#14253A" height="10" style="stroke:#1DE9B6;stroke-width:1;" width="15" x="862.341" y="260"/><rect fill="#14253A" height="2" style="stroke:#1DE9B6;stroke-width:1;" width="4" x="860.341" y="262"/><rect fill="#14253A" height="2" style="stroke:#1DE9B6;stroke-width:1;" width="4" x="860.341" y="266"/><text fill="#E8EEF7" font-family="Helvetica" font-size="14" lengthAdjust="spacing" textLength="83.2549" x="703.3" y="285.7803">migrations.py</text><text fill="#E8EEF7" font-family="Helvetica" font-size="14" lengthAdjust="spacing" textLength="154.041" x="703.3" y="299.7803">(PRAGMA user_version)</text></g><!--entity CFG--><g class="entity" data-qualified-name="core modules.CFG" data-source-line="35" id="ent0015"><rect fill="#14253A" height="44" rx="2.5" ry="2.5" style="stroke:#1DE9B6;stroke-width:1;" width="156.7236" x="916.96" y="262"/><rect fill="#14253A" height="10" style="stroke:#1DE9B6;stroke-width:1;" width="15" x="1053.6836" y="267"/><rect fill="#14253A" height="2" style="stroke:#1DE9B6;stroke-width:1;" width="4" x="1051.6836" y="269"/><rect fill="#14253A" height="2" style="stroke:#1DE9B6;stroke-width:1;" width="4" x="1051.6836" y="273"/><text fill="#E8EEF7" font-family="Helvetica" font-size="14" lengthAdjust="spacing" textLength="116.7236" x="931.96" y="292.7803">config.py / plmn.py</text></g><!--entity APP--><g class="entity" data-qualified-name="APP" data-source-line="19" id="ent0002"><rect fill="#14253A" height="86" rx="2.5" ry="2.5" style="stroke:#1DE9B6;stroke-width:1;" width="210.7891" x="1154.93" y="55"/><rect fill="#14253A" height="10" style="stroke:#1DE9B6;stroke-width:1;" width="15" x="1345.7191" y="60"/><rect fill="#14253A" height="2" style="stroke:#1DE9B6;stroke-width:1;" width="4" x="1343.7191" y="62"/><rect fill="#14253A" height="2" style="stroke:#1DE9B6;stroke-width:1;" width="4" x="1343.7191" y="66"/><text fill="#E8EEF7" font-family="Helvetica" font-size="14" lengthAdjust="spacing" textLength="42.0342" x="1169.93" y="85.7803">app.py</text><text fill="#E8EEF7" font-family="Helvetica" font-size="14" lengthAdjust="spacing" textLength="115.1719" x="1169.93" y="99.7803">(app factory, login,</text><text fill="#E8EEF7" font-family="Helvetica" font-size="14" lengthAdjust="spacing" textLength="170.7891" x="1169.93" y="113.7803">MQTT bridge + state poller,</text><text fill="#E8EEF7" font-family="Helvetica" font-size="14" lengthAdjust="spacing" textLength="112.0479" x="1169.93" y="127.7803">CSP nonce, CSV)</text></g><!--entity INFLUX--><g class="entity" data-qualified-name="INFLUX" data-source-line="38" id="ent0016"><path d="M40.42,407 C40.42,397 103.3233,397 103.3233,397 C103.3233,397 166.2266,397 166.2266,407 L166.2266,444 C166.2266,454 103.3233,454 103.3233,454 C103.3233,454 40.42,454 40.42,444 L40.42,407" fill="#14253A" style="stroke:#1DE9B6;stroke-width:1;"/><path d="M40.42,407 C40.42,417 103.3233,417 103.3233,417 C103.3233,417 166.2266,417 166.2266,407" fill="none" style="stroke:#1DE9B6;stroke-width:1;"/><text fill="#E8EEF7" font-family="Helvetica" font-size="14" lengthAdjust="spacing" textLength="52.9102" x="50.42" y="431.7803">InfluxDB</text><text fill="#E8EEF7" font-family="Helvetica" font-size="14" lengthAdjust="spacing" textLength="105.8066" x="50.42" y="445.7803">(measurement v)</text></g><!--entity SQLITE--><g class="entity" data-qualified-name="SQLITE" data-source-line="39" id="ent0017"><path d="M1426.86,407 C1426.86,397 1470.3185,397 1470.3185,397 C1470.3185,397 1513.777,397 1513.777,407 L1513.777,444 C1513.777,454 1470.3185,454 1470.3185,454 C1470.3185,454 1426.86,454 1426.86,444 L1426.86,407" fill="#14253A" style="stroke:#1DE9B6;stroke-width:1;"/><path d="M1426.86,407 C1426.86,417 1470.3185,417 1470.3185,417 C1470.3185,417 1513.777,417 1513.777,407" fill="none" style="stroke:#1DE9B6;stroke-width:1;"/><text fill="#E8EEF7" font-family="Helvetica" font-size="14" lengthAdjust="spacing" textLength="42.7998" x="1436.86" y="431.7803">SQLite</text><text fill="#E8EEF7" font-family="Helvetica" font-size="14" lengthAdjust="spacing" textLength="66.917" x="1436.86" y="445.7803">(triplog.db)</text></g><!--link APP to AUTH--><g class="link" data-entity-1="ent0002" data-entity-2="ent0004" data-link-type="dependency" data-source-line="41" id="lnk18"><path d="M1247.93,141.21 C1237.72,176.01 1225.2115,218.6634 1216.3115,248.9534" fill="none" id="APP-to-AUTH" style="stroke:#1DE9B6;stroke-width:1;"/><polygon fill="#1DE9B6" points="1214.62,254.71,1220.9949,247.2027,1216.0295,249.9128,1213.3194,244.9474,1214.62,254.71" style="stroke:#1DE9B6;stroke-width:1;"/></g><!--link APP to TRIPS--><g class="link" data-entity-1="ent0002" data-entity-2="ent0005" data-link-type="dependency" data-source-line="42" id="lnk19"><path d="M1288.77,141.21 C1312.22,176.01 1341.4861,219.4449 1361.9061,249.7349" fill="none" id="APP-to-TRIPS" style="stroke:#1DE9B6;stroke-width:1;"/><polygon fill="#1DE9B6" points="1365.26,254.71,1363.5458,245.0115,1362.4651,250.5641,1356.9124,249.4834,1365.26,254.71" style="stroke:#1DE9B6;stroke-width:1;"/></g><!--link APP to JOUR--><g class="link" data-entity-1="ent0002" data-entity-2="ent0006" data-link-type="dependency" data-source-line="43" id="lnk20"><path d="M1353.32,141.48 C1390.23,159.81 1432.37,182.63 1468.32,207 C1489.21,221.16 1506.2644,235.5477 1522.7644,250.7277" fill="none" id="APP-to-JOUR" style="stroke:#1DE9B6;stroke-width:1;"/><polygon fill="#1DE9B6" points="1527.18,254.79,1523.2648,245.7528,1523.5003,251.4047,1517.8484,251.6402,1527.18,254.79" style="stroke:#1DE9B6;stroke-width:1;"/></g><!--link APP to CHG--><g class="link" data-entity-1="ent0002" data-entity-2="ent0007" data-link-type="dependency" data-source-line="44" id="lnk21"><path d="M1366.15,115.67 C1446.08,131.29 1556.62,159.53 1644.32,207 C1667.08,219.31 1684.7316,234.2932 1700.8716,250.3132" fill="none" id="APP-to-CHG" style="stroke:#1DE9B6;stroke-width:1;"/><polygon fill="#1DE9B6" points="1705.13,254.54,1701.5602,245.3609,1701.5813,251.0177,1695.9245,251.0388,1705.13,254.54" style="stroke:#1DE9B6;stroke-width:1;"/></g><!--link APP to ADMIN--><g class="link" data-entity-1="ent0002" data-entity-2="ent0008" data-link-type="dependency" data-source-line="45" id="lnk22"><path d="M1366.09,104.67 C1481.78,114.18 1670.42,139.54 1818.32,207 C1840.32,217.03 1857.2395,229.0994 1874.3795,243.8294" fill="none" id="APP-to-ADMIN" style="stroke:#1DE9B6;stroke-width:1;"/><polygon fill="#1DE9B6" points="1878.93,247.74,1874.7114,238.8404,1875.1379,244.4811,1869.4972,244.9077,1878.93,247.74" style="stroke:#1DE9B6;stroke-width:1;"/></g><!--link APP to PROF--><g class="link" data-entity-1="ent0002" data-entity-2="ent0009" data-link-type="dependency" data-source-line="46" id="lnk23"><path d="M1366.07,107.51 C1544.68,122.99 1897.88,158.68 2012.32,207 C2039.18,218.34 2060.9227,234.264 2080.0727,250.834" fill="none" id="APP-to-PROF" style="stroke:#1DE9B6;stroke-width:1;"/><polygon fill="#1DE9B6" points="2084.61,254.76,2080.4214,245.8462,2080.8289,251.4884,2075.1868,251.8959,2084.61,254.76" style="stroke:#1DE9B6;stroke-width:1;"/></g><!--link APP to DET--><g class="link" data-entity-1="ent0002" data-entity-2="ent0011" data-link-type="dependency" data-source-line="48" id="lnk24"><path d="M1154.82,102.63 C940.7,111.35 463.02,138.11 316.32,207 C292.95,217.97 275.7286,233.5866 260.7386,250.3566" fill="none" id="APP-to-DET" style="stroke:#1DE9B6;stroke-width:1;"/><polygon fill="#1DE9B6" points="256.74,254.83,265.7201,250.7856,260.0722,251.1022,259.7556,245.4542,256.74,254.83" style="stroke:#1DE9B6;stroke-width:1;"/><text fill="#E8EEF7" font-family="Helvetica" font-size="13" lengthAdjust="spacing" textLength="99.0107" x="427.02" y="188.5103">background scan</text></g><!--link APP to GEO--><g class="link" data-entity-1="ent0002" data-entity-2="ent0013" data-link-type="dependency" data-source-line="49" id="lnk25"><path d="M1154.57,99.67 C1031.53,104.54 825.46,125.59 670.32,207 C648.51,218.44 632.8325,233.6818 619.0325,250.2318" fill="none" id="APP-to-GEO" style="stroke:#1DE9B6;stroke-width:1;"/><polygon fill="#1DE9B6" points="615.19,254.84,624.0258,250.4894,618.3921,250.9998,617.8816,245.3661,615.19,254.84" style="stroke:#1DE9B6;stroke-width:1;"/><text fill="#E8EEF7" font-family="Helvetica" font-size="13" lengthAdjust="spacing" textLength="89.5972" x="745.2" y="188.5103">address backfill</text></g><!--link APP to CFG--><g class="link" data-entity-1="ent0002" data-entity-2="ent0015" data-link-type="dependency" data-source-line="50" id="lnk26"><path d="M1189.09,141.32 C1173.81,150.82 1157.89,161.04 1143.32,171 C1099.7,200.83 1055.9315,234.6723 1026.7215,257.8323" fill="none" id="APP-to-CFG" style="stroke:#1DE9B6;stroke-width:1;stroke-dasharray:7,7;"/><polygon fill="#1DE9B6" points="1022.02,261.56,1031.5574,259.1028,1025.9379,258.4536,1026.5871,252.8341,1022.02,261.56" style="stroke:#1DE9B6;stroke-width:1;"/><text fill="#E8EEF7" font-family="Helvetica" font-size="13" lengthAdjust="spacing" textLength="62.1436" x="1152.6259" y="182.0103">field types,</text><text fill="#E8EEF7" font-family="Helvetica" font-size="13" lengthAdjust="spacing" textLength="78.7554" x="1144.32" y="195.0103">carrier lookup</text></g><!--link DET to INFLUX--><g class="link" data-entity-1="ent0011" data-entity-2="ent0016" data-link-type="dependency" data-source-line="51" id="lnk27"><path d="M207.81,313.23 C184.93,337.59 156.1868,368.2058 133.4568,392.4158" fill="none" id="DET-to-INFLUX" style="stroke:#1DE9B6;stroke-width:1;"/><polygon fill="#1DE9B6" points="129.35,396.79,138.4264,392.9665,132.7724,393.1448,132.5941,387.4908,129.35,396.79" style="stroke:#1DE9B6;stroke-width:1;"/><text fill="#E8EEF7" font-family="Helvetica" font-size="13" lengthAdjust="spacing" textLength="83.0908" x="169.82" y="363.0103">read telemetry</text></g><!--link DET to SQLITE--><g class="link" data-entity-1="ent0011" data-entity-2="ent0017" data-link-type="dependency" data-source-line="52" id="lnk28"><path d="M265.6,313.21 C280.05,324.66 298.03,336.85 316.32,344 C394.72,374.65 420.49,359.38 504.32,367 C859.45,399.26 1283.7445,417.3171 1420.4445,422.6271" fill="none" id="DET-to-SQLITE" style="stroke:#1DE9B6;stroke-width:1;"/><polygon fill="#1DE9B6" points="1426.44,422.86,1417.602,418.5137,1421.4438,422.6659,1417.2915,426.5077,1426.44,422.86" style="stroke:#1DE9B6;stroke-width:1;"/><text fill="#E8EEF7" font-family="Helvetica" font-size="13" lengthAdjust="spacing" textLength="55.6182" x="505.32" y="363.0103">write trips</text></g><!--link APP to INFLUX--><g class="link" data-entity-1="ent0002" data-entity-2="ent0016" data-link-type="dependency" data-source-line="53" id="lnk29"><path d="M1154.46,100.37 C874.29,105.12 129.99,125.38 58.32,207 C11,260.9 53.0306,346.1954 81.2806,391.6054" fill="none" id="APP-to-INFLUX" style="stroke:#1DE9B6;stroke-width:1;"/><polygon fill="#1DE9B6" points="84.45,396.7,83.0923,386.9452,81.8088,392.4545,76.2995,391.171,84.45,396.7" style="stroke:#1DE9B6;stroke-width:1;"/><text fill="#E8EEF7" font-family="Helvetica" font-size="13" lengthAdjust="spacing" textLength="93.5645" x="59.32" y="287.5103">live state + write</text></g><!--link IMP to SQLITE--><g class="link" data-entity-1="ent0012" data-entity-2="ent0017" data-link-type="dependency" data-source-line="54" id="lnk30"><path d="M456.66,313.49 C474.6,324.99 496.64,337.14 518.32,344 C605.64,371.64 1244.9706,411.1543 1420.4206,421.5743" fill="none" id="IMP-to-SQLITE" style="stroke:#1DE9B6;stroke-width:1;"/><polygon fill="#1DE9B6" points="1426.41,421.93,1417.663,417.4035,1421.4188,421.6336,1417.1887,425.3894,1426.41,421.93" style="stroke:#1DE9B6;stroke-width:1;"/><text fill="#E8EEF7" font-family="Helvetica" font-size="13" lengthAdjust="spacing" textLength="39.7363" x="677.92" y="363.0103">backfill</text></g><!--link MIG to SQLITE--><g class="link" data-entity-1="ent0014" data-entity-2="ent0017" data-link-type="dependency" data-source-line="55" id="lnk31"><path d="M830.21,313.38 C850.54,324.86 875.36,337.03 899.32,344 C937.88,355.22 949.45,347.23 989.32,352 C1151.16,371.37 1336.4441,401.7387 1420.7541,416.0087" fill="none" id="MIG-to-SQLITE" style="stroke:#1DE9B6;stroke-width:1;"/><polygon fill="#1DE9B6" points="1426.67,417.01,1418.4637,411.5641,1421.7401,416.1756,1417.1287,419.452,1426.67,417.01" style="stroke:#1DE9B6;stroke-width:1;"/><text fill="#E8EEF7" font-family="Helvetica" font-size="13" lengthAdjust="spacing" textLength="101.1689" x="1096.03" y="363.0103">schema evolution</text></g><!--link TRIPS to SQLITE--><g class="link" data-entity-1="ent0005" data-entity-2="ent0017" data-link-type="dependency" data-source-line="56" id="lnk32"><path d="M1401.73,313.23 C1416.74,337.59 1435.1606,367.473 1450.0906,391.683" fill="none" id="TRIPS-to-SQLITE" style="stroke:#1DE9B6;stroke-width:1;"/><polygon fill="#1DE9B6" points="1453.24,396.79,1451.9205,387.0299,1450.6155,392.5342,1445.1112,391.2291,1453.24,396.79" style="stroke:#1DE9B6;stroke-width:1;"/></g><!--link JOUR to SQLITE--><g class="link" data-entity-1="ent0006" data-entity-2="ent0017" data-link-type="dependency" data-source-line="57" id="lnk33"><path d="M1538.92,313.23 C1523.9,337.59 1505.4779,367.4721 1490.5579,391.6821" fill="none" id="JOUR-to-SQLITE" style="stroke:#1DE9B6;stroke-width:1;"/><polygon fill="#1DE9B6" points="1487.41,396.79,1495.5371,391.2267,1490.0332,392.5334,1488.7265,387.0295,1487.41,396.79" style="stroke:#1DE9B6;stroke-width:1;"/></g><!--link CHG to SQLITE--><g class="link" data-entity-1="ent0007" data-entity-2="ent0017" data-link-type="dependency" data-source-line="58" id="lnk34"><path d="M1692.34,313.42 C1677.63,323.61 1660.53,334.84 1644.32,344 C1601.44,368.25 1555.5131,389.0159 1519.7231,404.2059" fill="none" id="CHG-to-SQLITE" style="stroke:#1DE9B6;stroke-width:1;"/><polygon fill="#1DE9B6" points="1514.2,406.55,1524.0475,406.7159,1518.8026,404.5966,1520.922,399.3517,1514.2,406.55" style="stroke:#1DE9B6;stroke-width:1;"/></g><!--link ADMIN to SQLITE--><g class="link" data-entity-1="ent0008" data-entity-2="ent0017" data-link-type="dependency" data-source-line="59" id="lnk35"><path d="M1863.82,320.5 C1849.56,329.15 1833.75,337.72 1818.32,344 C1713.66,386.64 1587.5806,408.5279 1520.2106,418.0779" fill="none" id="ADMIN-to-SQLITE" style="stroke:#1DE9B6;stroke-width:1;"/><polygon fill="#1DE9B6" points="1514.27,418.92,1523.7423,421.6172,1519.2205,418.2182,1522.6195,413.6964,1514.27,418.92" style="stroke:#1DE9B6;stroke-width:1;"/></g><!--link PROF to SQLITE--><g class="link" data-entity-1="ent0009" data-entity-2="ent0017" data-link-type="dependency" data-source-line="60" id="lnk36"><path d="M2073.37,313.44 C2055.39,324.65 2033.57,336.58 2012.32,344 C1834.72,406.01 1614.0863,420.0406 1520.1463,423.3206" fill="none" id="PROF-to-SQLITE" style="stroke:#1DE9B6;stroke-width:1;"/><polygon fill="#1DE9B6" points="1514.15,423.53,1523.2841,427.2135,1519.147,423.3555,1523.0049,419.2184,1514.15,423.53" style="stroke:#1DE9B6;stroke-width:1;"/></g><?plantuml-src XLJDRjD04BxxAOPm0JMqz8SME5JAZvCQaJHjKzG3KhMn9ywIzQwrkmv428c7u5suyoWy2RFUnDXjAJVFpZVppNmpuoTsWHb2BXYNWLbocJFDCfYnU9bgLSYafuJIyFHbkDyzwDKG2SvP8Un0IRk1XA_3S73oC6JCYEGCnGejZraDqz5QVTuasE-7Rxh7TvsFCSGgovL4QRjtwzq_EdXrs7aGgdI2-b-K5UmnsfpOM8hT_ugq1TOf3yAZa-F3-w0QuPj1zx3N49jPDcC6_zzcXNoqootgVfE1vLOWHFrVFqVC8lp-_WEcckT2fH19YreoGNE95znYR0kDy6mWc5d2J1IOQowjUHu4bOhGOdc-cwy_ocVq0NCMMwNNRQ1qNBO_oj75T0eppPCKOGUCTPIv4W8rENjN4v1AnjY6tjM7vorW1ZgJIH1i58FMNzAz5dmD0Eh4XLqGhMU2Wq6d3GPjaM_oN4_FcdXBNHeVC5DgsGRBKkF1qyjeSjL4VrA5bhXs0MuWEPTf6uQJ6n_mxlpwiecF5qodwE3-2woc9b1xVEziUAVu9EFIvKOrHncNsGk3sf0iArpmMA0f-x7asbJPwO-YSJDDhjMS2tJghsZacffovrxAuOCcb-U3u5jDqbZHJ3EL5CHmJzC4tTILzXDrYe5_uahwVFrmsWpXzANjxISrAuCi6i4o6lEjTz1Z6HUD9iquwZnMjCAUQgn83sPvvbc6uNaJdV5KCrU5yVZ9PMSuwfIItQv8jgg-KNH7wLZ9EKyf2lReBvZ9RK6zmT3fihqKQ4LoBeel_Ivbpv0PMltC9LZvlD5uyFxwfWQ_kdXF9x9HYNPgDvbv93cYQHW4jCdmuiMftyIjuJTjQvLhj3NSZbGnvQYtLZd3og89mDlQ3nnCp6Jb9UN8ov94ep4bYXP4bExTtLFNDRdd74K2TfsZsxUOQSrHqysgPP47Bh_Bv3icj4P6O1IaXzNhok_x9FzdJK90ULvL6LMmu2lStFsEHmQq2iq4LPKqlAR7nBJE372bHE6c7vJwrJ21ax1kaufrinIo_k2qhDj_0000?></g></svg>